<svg width="20" height="20" viewBox="0 0 20 20" fill="none" xmlns="http://www.w3.org/2000/svg">
<path d="M5.23828 4.13672L0.441406 8.93359C0.160156 9.21484 0 9.60156 0 10C0 10.3984 0.160156 10.7852 0.441406 11.0664L5.23828 15.8633C5.48828 16.1133 5.82422 16.25 6.17578 16.25C6.90625 16.25 7.5 15.6562 7.5 14.9258V12.5H12.5C13.1914 12.5 13.75 11.9414 13.75 11.25V8.75C13.75 8.05859 13.1914 7.5 12.5 7.5H7.5V5.07422C7.5 4.34375 6.90625 3.75 6.17578 3.75C5.82422 3.75 5.48828 3.89062 5.23828 4.13672ZM13.75 3.75H16.25C16.9414 3.75 17.5 4.30859 17.5 5V15C17.5 15.6914 16.9414 16.25 16.25 16.25H13.75C13.0586 16.25 12.5 16.8086 12.5 17.5C12.5 18.1914 13.0586 18.75 13.75 18.75H16.25C18.3203 18.75 20 17.0703 20 15V5C20 2.92969 18.3203 1.25 16.25 1.25H13.75C13.0586 1.25 12.5 1.80859 12.5 2.5C12.5 3.19141 13.0586 3.75 13.75 3.75Z" fill="white"/>
</svg>
