<svg width="25" height="23" viewBox="0 0 25 23" fill="none" xmlns="http://www.w3.org/2000/svg">
<path d="M12.4999 4.98957L3.01512 13.3554C2.9448 13.4188 2.85496 13.4483 2.7777 13.5008V21.5277C2.7777 21.9114 3.08847 22.2222 3.47215 22.2222L10.4847 22.2223V19.2222L12.4847 18.2223L14.4847 19.2222V22.2222H21.5277C21.9114 22.2222 22.2221 21.9114 22.2221 21.5277V13.5026C22.1484 13.4522 22.0607 13.4236 21.9938 13.3637L12.4999 4.98957ZM24.7695 10.2552L22.2221 8.00562V2.08333C22.2221 1.69967 21.9114 1.38889 21.5277 1.38889H18.7499C18.3662 1.38889 18.0555 1.69967 18.0555 2.08333V4.32681L13.6609 0.447482C13.3298 0.149758 12.9149 0.00043495 12.4999 9.48813e-07C12.085 -0.000433052 11.6709 0.148022 11.3411 0.445746L0.230393 10.2552C-0.0547635 10.5117 -0.078635 10.9505 0.177875 11.2361L1.10669 12.2699C1.36277 12.5551 1.80201 12.5789 2.0876 12.3224L12.0407 3.54296C12.3033 3.31164 12.697 3.31164 12.9596 3.54296L22.9127 12.322C23.1978 12.5781 23.6371 12.5546 23.8936 12.2695L24.8224 11.2356C25.0785 10.9505 25.055 10.5112 24.7695 10.2552Z" fill="#0063BE"/>
</svg>
