<svg width="22" height="23" viewBox="0 0 22 23" fill="none" xmlns="http://www.w3.org/2000/svg">
<path d="M9.16667 0C8.15375 0 7.33333 0.791731 7.33333 1.76923V8.84615V9.73077V15.4808C4.994 14.3317 3.93158 14.1538 2.75 14.1538C1.37859 14.1538 0.00893248 14.6645 0.00179036 16.3533L4.125 18.1346L7.01823 20.9267C8.39323 22.2536 10.2597 23 12.2049 23H18.3333C20.3583 23 22 21.4157 22 19.4615V10.6154C22 10.1462 21.8068 9.69614 21.463 9.36435C21.1192 9.03255 20.6529 8.84615 20.1667 8.84615C19.8192 8.84666 19.4791 8.94242 19.1859 9.12229C18.8927 9.30215 18.6585 9.55871 18.5106 9.86208C18.3946 9.78582 18.3333 9.73077 18.3333 9.73077C18.3333 9.26154 18.1402 8.81153 17.7964 8.47973C17.4525 8.14794 16.9862 7.96154 16.5 7.96154C16.0138 7.96154 15.5475 8.14794 15.2036 8.47973C14.8598 8.81153 14.6667 9.26154 14.6667 9.73077V8.84615C14.6667 7.86865 13.8463 7.07692 12.8333 7.07692C11.8204 7.07692 11 7.86865 11 8.84615V1.76923C11 0.791731 10.1796 0 9.16667 0ZM0.00179036 16.3533H0V16.3654C0 16.361 0.00177176 16.3577 0.00179036 16.3533Z" fill="white"/>
</svg>
